<?xml version="1.0" encoding="UTF-8"?>
<svg width="45px" height="45px" viewBox="0 0 45 45" version="1.1" xmlns="http://www.w3.org/2000/svg" xmlns:xlink="http://www.w3.org/1999/xlink">
    <title>icon-whatsapp</title>
    <g id="icon-whatsapp" stroke="none" stroke-width="1" fill="none" fill-rule="evenodd">
        <path d="M0,45 L3.17822139,33.444375 C1.21703084,30.061875 0.186510917,26.2275 0.188394866,22.295625 C0.194046712,10.003125 10.2449128,0 22.5941963,0 C28.587037,0.001875 34.2125077,2.325 38.4438564,6.54 C42.6733211,10.755 45.0018817,16.3575 45,22.31625 C44.9943459,34.610625 34.9434798,44.61375 22.5941963,44.61375 C18.8451385,44.611875 15.1507151,43.67625 11.8782963,41.89875 L0,45 Z M12.4284093,37.861875 C15.5859073,39.7275 18.6002251,40.845 22.5866605,40.846875 C32.8504128,40.846875 41.211377,32.533125 41.2170301,22.3125 C41.2207967,12.07125 32.8993955,3.76875 22.6017321,3.765 C12.330444,3.765 3.97513167,12.07875 3.97136161,22.2975 C3.96947983,26.469375 5.19781436,29.593125 7.26073814,32.86125 L5.37867343,39.70125 L12.4284093,37.861875 Z M33.8809327,27.616875 C33.7415205,27.384375 33.3684987,27.245625 32.807082,26.96625 C32.2475492,26.686875 29.4951002,25.33875 28.9807823,25.153125 C28.4683482,24.9675 28.0953264,24.87375 27.7204206,25.4325 C27.3473988,25.989375 26.273548,27.245625 25.9476249,27.616875 C25.6217018,27.988125 25.2938947,28.035 24.734362,27.755625 C24.1748292,27.47625 22.3700064,26.889375 20.2317247,24.99 C18.568198,23.5125 17.4434807,21.688125 17.1175575,21.129375 C16.7916344,20.5725 17.0836465,20.270625 17.3624709,19.993125 C17.61492,19.74375 17.9220036,19.3425 18.202712,19.01625 C18.4871882,18.69375 18.5795017,18.46125 18.7678966,18.088125 C18.9544075,17.716875 18.862094,17.390625 18.7207978,17.11125 C18.5795017,16.83375 17.4604362,14.090625 16.9951009,12.975 C16.5391853,11.889375 16.0776179,12.035625 15.7347392,12.01875 L14.6608885,12 C14.2878666,12 13.6812352,12.13875 13.1688011,12.6975 C12.6563671,13.25625 11.2094945,14.6025 11.2094945,17.345625 C11.2094945,20.08875 13.2158999,22.738125 13.4947243,23.109375 C13.7754326,23.480625 17.4415967,29.109375 23.0576477,31.5225 C24.3933673,32.09625 25.4370748,32.439375 26.2490567,32.69625 C27.5904281,33.12 28.8112269,33.06 29.7758086,32.9175 C30.8515433,32.758125 33.0877903,31.569375 33.5550096,30.268125 C34.0222289,28.965 34.0222289,27.849375 33.8809327,27.616875 L33.8809327,27.616875 Z" id="Shape" fill="#FFFFFF" fill-rule="nonzero"></path>
    </g>
</svg>