<?xml version="1.0" encoding="UTF-8"?>
<svg width="60px" height="48px" viewBox="0 0 540 48" version="1.1" xmlns="http://www.w3.org/2000/svg" xmlns:xlink="http://www.w3.org/1999/xlink">

    <view id='icon-lamp' viewBox='0 0 60 48' />
    <view id='icon-star' viewBox='60 0 60 48' />
    <view id='icon-fish' viewBox='120 0 60 48' />
    <view id='icon-spoon' viewBox='180 0 60 48' />
    <view id='icon-ship' viewBox='240 0 60 48' />
    <view id='icon-bells' viewBox='300 0 60 48' />
    <view id='icon-calendar' viewBox='360 0 60 48' />
    <view id='icon-location' viewBox='420 0 60 48' />
    <view id='icon-phone' viewBox='478 0 60 48' />

    <g id="icons" stroke="none" stroke-width="1" fill="none" fill-rule="evenodd">
        <path d="M185.996537,17.9934849 L207.087372,23.9101772 L233.033372,30.8621772 L233.172085,30.8994751 L232.395628,33.7972525 L223.996974,31.5472812 L206.128819,26.7598284 C203.68101,30.9632226 198.709021,33.3428388 193.83739,32.0374892 C187.969263,30.4651293 184.424177,23.8616121 185.996537,17.9934849 L185.996537,17.9934849 Z M198.014012,8.83075135 C199.205846,9.15010252 200.057862,10.1177565 200.318076,11.2770159 L200.328176,11.2734507 L200.331149,11.2871711 L200.419095,11.2638049 C200.872034,11.14869 201.352715,11.1319234 201.832196,11.2309716 L202.011888,11.2735777 C203.74728,11.7385744 204.762209,13.578058 204.278796,15.3821793 C203.925613,16.7002766 202.870356,17.6348272 201.650651,17.8613557 L195.636568,19.5817553 L194.055361,13.2606656 C193.845857,12.6395564 193.811768,11.9449214 193.996511,11.255451 C194.479924,9.45132967 196.27862,8.36575466 198.014012,8.83075135 Z" id="spoon" fill="#053059"></path>
        <path d="M23.430971,11.8424837 L21.8330725,29.2946352 C21.8235862,29.3982441 21.8188352,29.5022525 21.8188352,29.6063181 C21.8188352,31.4458234 23.2714657,32.937037 25.0633763,32.937037 L34.9363552,32.937037 C35.0377282,32.937037 35.1390455,32.9321599 35.2399737,32.9224216 C37.0240212,32.7502839 38.3343429,31.1260686 38.166659,29.2946352 L36.5687605,11.8424837 L23.430971,11.8424837 Z M31.935032,7.77160494 C32.9083152,7.77160494 33.7060925,8.52303536 33.7798643,9.47739673 L33.7854314,9.62200436 L34.8669451,9.62200436 C36.2606533,9.62200436 37.3904771,10.7818372 37.3904771,12.2125635 L37.3904771,12.5826434 L37.3268261,12.5826049 L38.8845043,29.5954522 C39.0894512,31.8338708 37.487947,33.8190228 35.3074445,34.0294134 C35.1840878,34.0413157 35.0602555,34.0472767 34.9363552,34.0472767 L33.4860688,34.0472767 C34.644048,34.0472767 35.5923082,34.94519 35.6725766,36.0827438 L35.674385,36.129034 C37.0162157,36.4531354 38.0269193,37.6259657 38.106439,39.0474678 L38.1114862,39.2283951 L21.8887807,39.2283951 C21.8887807,37.7265512 22.9271581,36.4672334 24.3251413,36.1292129 L24.3221866,36.2392883 C24.3221866,35.0286737 25.3035836,34.0472767 26.5141982,34.0472767 L25.0633763,34.0472767 C22.8732634,34.0472767 21.0978261,32.2246822 21.0978261,29.976398 C21.0978261,29.8492067 21.1036328,29.7220853 21.1152272,29.5954522 L22.6718261,12.5826049 L22.6097899,12.5826434 L22.6097899,12.2125635 C22.6097899,10.7818372 23.7396136,9.62200436 25.1333218,9.62200436 L26.2148355,9.62200436 C26.2148355,8.60005698 27.0432876,7.77160494 28.0652349,7.77160494 L31.935032,7.77160494 Z M30.0001335,36.2392883 C29.5521558,36.2392883 29.1889982,36.59616 29.1889982,37.0363834 C29.1889982,37.4766069 29.5521558,37.8334786 30.0001335,37.8334786 C30.4481111,37.8334786 30.8112688,37.4766069 30.8112688,37.0363834 C30.8112688,36.59616 30.4481111,36.2392883 30.0001335,36.2392883 Z M30.0001335,21.0944808 C27.4766015,24.7359985 26.2148355,27.2695437 26.2148355,28.6951162 C26.2148355,30.8334749 27.9095711,32.5669572 30.0001335,32.5669572 C32.0906958,32.5669572 33.7854314,30.8334749 33.7854314,28.6951162 C33.7854314,27.2695437 32.5236654,24.7359985 30.0001335,21.0944808 Z" id="lamp" fill="#FFFFFF" fill-rule="nonzero" transform="translate(30.000000, 23.500000) rotate(-375.000000) translate(-30.000000, -23.500000) "></path>
        <path d="M90.5355517,10.5412418 C90.6995286,10.6176733 90.8545224,10.7095529 90.9987287,10.8150764 C90.9457205,10.8940524 90.9163336,10.9872403 90.9163336,11.0872919 C90.9163336,11.3634343 91.1401912,11.5872919 91.4163336,11.5872919 C91.5088193,11.5872919 91.5954402,11.5621814 91.6697505,11.5184061 C91.4889609,11.2454783 91.2617939,11.0075752 90.9987287,10.8150764 C91.0854129,10.6783207 91.2402428,10.5872919 91.4163336,10.5872919 C91.6924759,10.5872919 91.9163336,10.8111495 91.9163336,11.0872919 C91.9163336,11.2709485 91.8173145,11.4314779 91.6697505,11.5184061 C91.7443114,11.6311672 91.8112329,11.7504667 91.8692525,11.8749426 L93.4638383,15.2959842 C94.0283624,16.5071204 95.1603751,17.3563794 96.4810752,17.5595772 L99.9532329,18.0937897 C101.257712,18.2944917 102.226923,19.3294837 102.401599,20.5724778 C102.64502,20.6077824 102.8645,20.78557 102.956657,21.0522639 C103.088095,21.4326306 102.91077,21.8498074 102.56059,21.9840544 C102.453591,22.0250743 102.342834,22.0349324 102.236855,22.0179911 C102.311419,21.8267278 102.364087,21.6279544 102.395444,21.4241458 C102.439997,21.134574 102.440374,20.8484011 102.401599,20.5724778 C102.297509,20.5561943 102.189262,20.5665048 102.084611,20.6066246 C101.734431,20.7408715 101.557106,21.1580484 101.688544,21.5384151 C101.77982,21.8025587 101.995995,21.9794881 102.236855,22.0179911 C102.098666,22.3865676 101.884186,22.7254689 101.606441,23.0121291 L98.851894,25.855091 C97.9729574,26.7622396 97.5741344,28.0312392 97.7761066,29.2780973 L98.4491878,33.4333074 C98.5521363,34.0688511 98.4300679,34.6888758 98.1415854,35.2121231 C98.166296,35.4675284 98.0556064,35.7327728 97.8334564,35.8905997 C97.7220814,35.9697263 97.5974341,36.0113787 97.4735022,36.018186 C97.1074423,36.3182993 96.659248,36.5295096 96.1576289,36.6107643 C95.5425246,36.7104019 94.9117917,36.5997447 94.3673398,36.2966721 L91.3166764,34.5985005 C90.1070601,33.9251598 88.6352703,33.9251598 87.4256539,34.5985005 L84.3749905,36.2966721 C83.0382319,37.0407874 81.3513501,36.5603551 80.6072348,35.2235964 C80.3041621,34.6791445 80.1935049,34.0484116 80.2931425,33.4333074 L80.9662238,29.2780973 C81.168196,28.0312392 80.7693729,26.7622396 79.8904364,25.855091 L77.1358895,23.0121291 C76.0136162,21.8538332 76.0428183,20.0050666 77.2011141,18.8827933 C77.6358693,18.4615588 78.1907861,18.1858435 78.7890975,18.0937897 L82.2612552,17.5595772 C83.5819553,17.3563794 84.7139679,16.5071204 85.2784921,15.2959842 L86.8730779,11.8749426 C87.5161508,10.4952871 89.1558961,9.8981689 90.5355517,10.5412418 Z M83.76815,35.2008066 C83.4495516,34.9744577 83.0223469,35.0547602 82.8139616,35.3801672 C82.6055763,35.7055743 82.6949217,36.1528609 83.0135201,36.3792097 C83.3321185,36.6055586 83.7593232,36.5252561 83.9677085,36.1998491 C84.1760938,35.874442 84.0867484,35.4271554 83.76815,35.2008066 Z M97.0788265,34.7121965 C96.7602281,34.9385454 96.6708827,35.385832 96.879268,35.711239 C97.0148063,35.9228908 97.2429159,36.0308516 97.4735022,36.018186 C97.7455659,35.793069 97.9722462,35.5192693 98.1415854,35.2121231 C98.1318976,35.0997459 98.0960988,34.9900668 98.0330149,34.8915572 C97.8246296,34.5661501 97.3974249,34.4858476 97.0788265,34.7121965 Z M85.4660673,32.5493994 C85.1474689,32.3230505 84.7202642,32.403353 84.5118789,32.7287601 C84.3034936,33.0541671 84.392839,33.5014537 84.7114374,33.7278026 C85.0300358,33.9541515 85.4572405,33.873849 85.6656258,33.5484419 C85.8740111,33.2230348 85.7846658,32.7757483 85.4660673,32.5493994 Z M95.3809092,32.0607893 C95.0623108,32.2871382 94.9729654,32.7344248 95.1813507,33.0598318 C95.389736,33.3852389 95.8169407,33.4655414 96.1355391,33.2391925 C96.4541375,33.0128436 96.5434829,32.5655571 96.3350976,32.24015 C96.1267123,31.914743 95.6995076,31.8344404 95.3809092,32.0607893 Z M87.1639847,29.8979922 C86.8453863,29.6716433 86.4181816,29.7519458 86.2097963,30.0773529 C86.001411,30.40276 86.0907563,30.8500465 86.4093548,31.0763954 C86.7279532,31.3027443 87.1551579,31.2224418 87.3635432,30.8970347 C87.5719285,30.5716277 87.4825831,30.1243411 87.1639847,29.8979922 Z M93.6829918,29.4093822 C93.3643934,29.635731 93.275048,30.0830176 93.4834333,30.4084247 C93.6918186,30.7338317 94.1190233,30.8141342 94.4376218,30.5877853 C94.7562202,30.3614365 94.8455655,29.9141499 94.6371802,29.5887428 C94.4287949,29.2633358 94.0015902,29.1830333 93.6829918,29.4093822 Z M89.9835376,23.6619657 C89.7073953,23.6619657 89.4835376,23.8858233 89.4835376,24.1619657 C89.4835376,24.4381081 89.7073953,24.6619657 89.9835376,24.6619657 C90.25968,24.6619657 90.4835376,24.4381081 90.4835376,24.1619657 C90.4835376,23.8858233 90.25968,23.6619657 89.9835376,23.6619657 Z M96.3780993,22.7943051 C96.0279194,22.928552 95.850594,23.3457289 95.9820321,23.7260956 C96.1134701,24.1064623 96.5038986,24.3059818 96.8540786,24.1717349 C97.2042585,24.0374879 97.3815838,23.6203111 97.2501458,23.2399444 C97.1187077,22.8595776 96.7282792,22.6600581 96.3780993,22.7943051 Z M83.1329407,23.2399444 C83.0015026,23.6203111 83.178828,24.0374879 83.5290079,24.1717349 C83.8791878,24.3059818 84.2696163,24.1064623 84.4010543,23.7260956 C84.5324924,23.3457289 84.3551671,22.928552 84.0049871,22.7943051 C83.6548072,22.6600581 83.2643787,22.8595776 83.1329407,23.2399444 Z M99.2313551,21.7004648 C98.8811752,21.8347118 98.7038498,22.2518886 98.8352879,22.6322553 C98.9667259,23.0126221 99.3571544,23.2121416 99.7073344,23.0778946 C100.057514,22.9436477 100.23484,22.5264709 100.103402,22.1461041 C99.9719635,21.7657374 99.581535,21.5662179 99.2313551,21.7004648 Z M80.2796849,22.1461041 C80.1482468,22.5264709 80.3255721,22.9436477 80.6757521,23.0778946 C81.025932,23.2121416 81.4163605,23.0126221 81.5477985,22.6322553 C81.6792366,22.2518886 81.5019113,21.8347118 81.1517313,21.7004648 C80.8015514,21.5662179 80.4111229,21.7657374 80.2796849,22.1461041 Z M77.4264291,21.0522639 C77.294991,21.4326306 77.4723163,21.8498074 77.8224963,21.9840544 C78.1726762,22.1183013 78.5631047,21.9187818 78.6945427,21.5384151 C78.8259808,21.1580484 78.6486554,20.7408715 78.2984755,20.6066246 C77.9482956,20.4723776 77.5578671,20.6718971 77.4264291,21.0522639 Z M90.311707,18.5735175 C90.0355647,18.5735175 89.811707,18.7973752 89.811707,19.0735175 C89.811707,19.3496599 90.0355647,19.5735175 90.311707,19.5735175 C90.5878494,19.5735175 90.811707,19.3496599 90.811707,19.0735175 C90.811707,18.7973752 90.5878494,18.5735175 90.311707,18.5735175 Z M90.3810574,14.4509952 C90.104915,14.4509952 89.8810574,14.6748528 89.8810574,14.9509952 C89.8810574,15.2271376 90.104915,15.4509952 90.3810574,15.4509952 C90.6571998,15.4509952 90.8810574,15.2271376 90.8810574,14.9509952 C90.8810574,14.6748528 90.6571998,14.4509952 90.3810574,14.4509952 Z" id="start" fill="#FFFFFF" transform="translate(89.500000, 23.500000) rotate(-345.000000) translate(-89.500000, -23.500000) "></path>
        <g id="fish" transform="translate(123.568632, 6.877323)">
            <path d="M15.8264849,28.2152681 C21.2963251,28.1869912 26.2581851,26.222055 30.7120652,22.3204596 C26.2975821,18.4647101 21.3554204,16.5509739 15.8855803,16.5792508 C10.4157401,16.6075277 5.45388002,18.5724639 1,22.4740593 C5.4144831,26.3298088 10.3566447,28.243545 15.8264849,28.2152681 Z" id="Oval" fill="#FFFFFF" transform="translate(15.856033, 22.397259) scale(-1, 1) rotate(-15.000000) translate(-15.856033, -22.397259) "></path>
            <path d="M15.7939856,16.2333054 L15.7703777,17.4958183 C11.0492754,17.5827328 7.15122992,21.4413846 7.0638495,26.1143584 L5.78833357,26.1378404 C5.88875225,20.7676 10.3684353,16.3331886 15.7939856,16.2333054 Z" id="Oval-2" fill="#FFFFFF" transform="translate(10.791160, 21.185573) scale(-1, 1) rotate(-60.000000) translate(-10.791160, -21.185573) "></path>
            <path d="M32.4255792,31.3865138 C33.7387895,31.3692785 34.9339373,30.8808493 36.0110225,29.9212261 C34.9589732,28.9895467 33.7763433,28.5323247 32.463133,28.54956 C31.1499227,28.5667953 29.9547749,29.0552245 28.8776896,30.0148477 C29.929739,30.946527 31.1123689,31.4037491 32.4255792,31.3865138 Z" id="Oval-Copy-4" fill="#FFFFFF" transform="translate(32.444356, 29.968037) scale(-1, 1) rotate(-55.000000) translate(-32.444356, -29.968037) "></path>
            <path d="M33.923422,25.8283026 C35.2234182,25.8432563 36.3949462,25.3791834 37.4380059,24.4360839 C36.3733555,23.4687398 35.1910322,22.9775909 33.891036,22.9626372 C32.5910399,22.9476836 31.4195119,23.4117565 30.3764521,24.354856 C31.4411026,25.3222001 32.6234259,25.813349 33.923422,25.8283026 Z" id="Oval-Copy-5" fill="#FFFFFF" transform="translate(33.907229, 24.395470) scale(-1, 1) rotate(25.000000) translate(-33.907229, -24.395470) "></path>
            <ellipse id="Oval-3-Copy" fill="#053059" transform="translate(8.900505, 19.146700) scale(-1, 1) rotate(-15.000000) translate(-8.900505, -19.146700) " cx="8.90050501" cy="19.1467003" rx="1.92894821" ry="1.96410735"></ellipse>
            <ellipse id="Oval-3" fill="#FFFFFF" transform="translate(8.900505, 19.146700) scale(-1, 1) rotate(-15.000000) translate(-8.900505, -19.146700) " cx="8.90050501" cy="19.1467003" rx="1.31168479" ry="1.335593"></ellipse>
            <path d="M32.4337664,12.5438511 C36.8497554,12.5283224 40.8530405,10.9722072 44.4436216,7.8755056 C40.8744698,4.80398096 36.8818995,3.27598299 32.4659104,3.29151169 C28.0499214,3.30704039 24.0466364,4.86315556 20.4560553,7.9598572 C24.025207,11.0313818 28.0177774,12.5593798 32.4337664,12.5438511 Z" id="Oval" fill="#FFFFFF" transform="translate(32.449838, 7.917681) scale(-1, 1) rotate(-15.000000) translate(-32.449838, -7.917681) "></path>
            <path d="M32.330936,3 L32.3197866,4.01308887 C28.5437093,4.0542277 25.4491398,7.12736961 25.4078722,10.8771434 L24.3876769,10.8882581 C24.4351021,6.57897069 27.9914204,3.04727726 32.330936,3 Z" id="Oval-2" fill="#FFFFFF" transform="translate(28.359306, 6.944129) scale(-1, 1) rotate(-60.000000) translate(-28.359306, -6.944129) "></path>
            <path d="M45.9804664,15.0898355 C47.0480587,15.0772694 48.0191471,14.6804162 48.8937316,13.8992762 C48.037407,13.1385099 47.0754486,12.7644099 46.0078562,12.7769761 C44.9402639,12.7895423 43.9691755,13.1863954 43.094591,13.9675354 C43.9509156,14.7283017 44.9128741,15.1024017 45.9804664,15.0898355 Z" id="Oval-Copy-4" fill="#FFFFFF" transform="translate(45.994161, 13.933406) scale(-1, 1) rotate(-55.000000) translate(-45.994161, -13.933406) "></path>
            <path d="M47.2033035,10.5680414 C48.2635573,10.5793532 49.2193549,10.2014601 50.0706964,9.43436203 C49.2030268,8.64892381 48.2390651,8.25054878 47.1788113,8.23923694 C46.1185574,8.22792509 45.1627598,8.60581821 44.3114183,9.37291629 C45.1790879,10.1583545 46.1430496,10.5567295 47.2033035,10.5680414 Z" id="Oval-Copy-5" fill="#FFFFFF" transform="translate(47.191057, 9.403639) scale(-1, 1) rotate(25.000000) translate(-47.191057, -9.403639) "></path>
            <ellipse id="Oval-3-Copy" fill="#053059" transform="translate(27.081316, 5.159465) scale(-1, 1) rotate(-15.000000) translate(-27.081316, -5.159465) " cx="27.0813157" cy="5.15946482" rx="1.65263899" ry="1.67329534"></ellipse>
            <ellipse id="Oval-3" fill="#FFFFFF" transform="translate(27.081316, 5.159465) scale(-1, 1) rotate(-15.000000) translate(-27.081316, -5.159465) " cx="27.0813157" cy="5.15946482" rx="1.12379451" ry="1.13784083"></ellipse>
        </g>
        <g id="ship" transform="translate(269.500000, 24.000000) rotate(-360.000000) translate(-269.500000, -24.000000) translate(244.000000, 4.000000)">
            <g id="Group-3" transform="translate(0.454545, 35.000000)" stroke="#FFFFFF" stroke-linecap="round">
                <path d="M4.51616146e-15,4.89760675 L5.03815334,0.698261056 C5.77990123,0.0800075794 6.85746141,0.0800075794 7.5992093,0.698261056 L12.6373626,4.89760675 L12.6373626,4.89760675" id="Triangle-2-Copy-4"></path>
                <path d="M25.2747253,4.89760675 L30.0047529,0.775881078 C30.7578076,0.119672506 31.879555,0.119672506 32.6326097,0.775881078 L37.3626374,4.89760675 L37.3626374,4.89760675" id="Triangle-2-Copy-5"></path>
                <path d="M12.6373626,4.89760675 L17.675516,0.698261056 C18.4172639,0.0800075794 19.494824,0.0800075794 20.2365719,0.698261056 L25.2747253,4.89760675 L25.2747253,4.89760675" id="Triangle-2-Copy-6"></path>
                <path d="M37.3626374,4.89760675 L42.4007907,0.698261056 C43.1425386,0.0800075794 44.2200988,0.0800075794 44.9618467,0.698261056 L50,4.89760675 L50,4.89760675" id="Triangle-2-Copy-7"></path>
            </g>
            <path d="M11.245884,40 L9.45454545,32.8099174 C16.9184896,31.7251191 22.1085989,30.8573505 25.0248733,30.2066116 C38.1516381,27.2774988 44.4545455,25 44.4545455,25 C44.4545455,25 43.9368599,27.6191367 41.5603064,32.5 C40.8768584,33.9036362 39.4070421,36.4036362 37.1508576,40" id="Path-2" stroke="#FFFFFF" stroke-linecap="round"></path>
            <line x1="25.8712121" y1="24" x2="25.8712121" y2="29.75" id="Line" stroke="#FFFFFF"></line>
            <path d="M20.2869316,4.01545134 C22.158939,9.67909872 23.9209425,14.1523108 25.5729423,17.4350876 C27.224942,20.7178644 30.1185209,25.274962 34.253679,31.1063803 C27.7480722,32.4686272 22.8918229,33.1574951 19.6849314,33.1729841 C16.4780398,33.1884731 12.9059513,32.6786841 8.96866582,31.6436171 L20.2869316,4.01545134 Z" id="Triangle-2" stroke="#053059" stroke-width="2" fill="#FFFFFF" stroke-linecap="round" stroke-linejoin="round" transform="translate(21.611172, 18.594389) rotate(-122.000000) translate(-21.611172, -18.594389) "></path>
        </g>
        <path d="M332.883488,7.13629669 C335.017289,7.70804698 336.283774,9.90107031 335.711673,12.0361802 C335.446193,13.0269628 334.830931,13.8306495 334.034296,14.3500475 C338.127014,17.1289588 340.220517,22.253917 338.878959,27.2606777 L336.552988,35.9422709 C337.590434,36.5079347 338.147531,37.7187609 337.831251,38.8991354 C337.459456,40.2866934 336.023597,41.1065243 334.622657,40.7311436 L328.988431,39.2218061 C327.711421,40.7074613 325.519736,41.3978516 323.341858,40.8142911 C321.163918,40.2307139 319.611032,38.5368956 319.247994,36.6117074 L312.648048,34.8430646 C311.247107,34.4676838 310.413533,33.0397601 310.785328,31.6522022 C311.101608,30.4718276 312.189479,29.7017823 313.370768,29.7306138 L315.696977,21.0490843 C317.192148,15.469029 322.455841,11.895204 328.060478,12.286512 C327.813443,11.5630177 327.771366,10.7601813 327.984266,9.96562786 C328.556379,7.83047159 330.749687,6.56454641 332.883488,7.13629669 Z M323.773361,39.2038998 C324.931137,39.5141248 326.094529,39.2844277 326.949959,38.6764773 L321.285889,37.1584972 C321.722679,38.1128728 322.615441,38.893636 323.773361,39.2038998 Z M317.386544,21.5018024 L315.060335,30.1833319 C314.853404,30.9556083 314.140897,31.484746 313.336162,31.4642587 C312.937757,31.4550812 312.578775,31.717235 312.474895,32.1049203 C312.350827,32.5679486 312.629068,33.0445858 313.096566,33.1698515 L319.261631,34.8214187 C319.279586,34.7345732 319.300147,34.6477948 319.323361,34.5611572 L321.094792,35.0358106 C321.07146,35.1228858 321.052148,35.2101725 321.036747,35.2975029 L328.096457,37.1893865 C328.126817,37.1059861 328.153763,37.0206644 328.177115,36.9335133 L329.948545,37.4081667 C329.925318,37.4948512 329.89972,37.5803297 329.87183,37.6645619 L335.071176,39.0579304 C335.53867,39.183195 336.017956,38.909541 336.142025,38.4465087 C336.245909,38.0588074 336.066085,37.6522721 335.716477,37.461046 C335.009151,37.0763692 334.656675,36.2618786 334.863606,35.4896022 L337.189814,26.8080727 C338.477304,22.0030972 336.059017,17.0707154 331.680057,14.9954013 C331.392379,14.9849212 331.102111,14.9411877 330.812935,14.8637033 C330.332565,14.7349884 329.896153,14.5241107 329.514775,14.2502478 C324.177123,13.0406541 318.80249,16.2174211 317.386544,21.5018024 Z M329.915203,10.4829711 C329.629388,11.5496452 330.263777,12.6454951 331.330701,12.9313765 C332.397624,13.2172578 333.494946,12.5854184 333.780761,11.5187443 C334.066575,10.4520702 333.432671,9.35441218 332.365747,9.06853083 C331.298823,8.78264947 330.201017,9.41629699 329.915203,10.4829711 Z" id="bells" fill="#FFFFFF"></path>
        <path d="M381.38782,2 L381.38782,5.41792987 L399.608099,5.41792987 L399.608099,2 L401.885634,2 L401.885634,5.41792987 L405.304142,5.41792987 C408.441576,5.41792987 410.996205,7.97054321 410.9981,11.1094594 L410.9981,11.1094594 L410.9981,16.8048756 L411,37.3045843 C411,40.4455896 408.443282,43 405.304098,43 L405.304098,43 L375.695902,43 C372.554629,43 370,40.4435005 370,37.3045843 L370,37.3045843 L370,11.113346 C370,7.97234079 372.556718,5.41792987 375.695902,5.41792987 L375.695902,5.41792987 L379.110285,5.41792987 L379.110285,2 L381.38782,2 Z M408.718238,16.8043897 L372.277438,16.8043897 L372.277438,37.3006976 C372.277438,39.1832992 373.809107,40.7147894 375.695659,40.7147894 L375.695659,40.7147894 L405.303855,40.7147894 C407.186617,40.7147894 408.718238,39.1832992 408.718238,37.3006976 L408.718238,37.3006976 L408.718238,16.8043897 Z M405,28 L405,37 L396,37 L396,28 L405,28 Z M379.114124,7.69143235 L375.695902,7.69143235 C373.809302,7.69143235 372.277681,9.22486595 372.277681,11.1093622 L372.277681,11.1093622 L372.277681,14.5272921 L408.718287,14.5272921 L408.718287,11.1093136 C408.718287,9.22481737 407.186666,7.69522184 405.303904,7.69522184 L405.303904,7.69522184 L401.885682,7.69522184 L401.885682,9.9725624 L399.608147,9.9725624 L399.608147,7.69522184 L381.387869,7.69522184 L381.387869,9.9687729 L379.114124,9.9687729 L379.114124,7.69143235 Z" id="calendar" fill="#1A1A1A"></path>
        <path d="M450.37373,0 C440.447661,0 432.37373,8.00770421 432.37373,17.8523541 C432.37373,21.3439668 433.241702,23.849637 435.069882,26.5285982 L449.345744,47.4589444 C449.576076,47.7980037 449.961586,48 450.37373,48 C450.785874,48 451.17144,47.7980098 451.401716,47.4589444 L465.677578,26.5285982 C467.505696,23.8497601 468.37373,21.3440899 468.37373,17.8548165 C468.37373,8.01016661 460.299799,0.00246239367 450.37373,0.00246239367 L450.37373,0 Z M450.37373,2.46239367 C458.959109,2.46239367 465.890971,9.3373968 465.890971,17.8523541 C465.890971,20.9784244 465.272709,22.7434682 463.621606,25.1625853 L450.373606,44.594565 L437.125606,25.1650477 C435.47693,22.7459306 434.85624,20.978486 434.85624,17.8548165 C434.85624,9.33985919 441.788102,2.46485606 450.373482,2.46485606 L450.37373,2.46239367 Z M450.37373,8.61837784 C445.590075,8.61837784 441.684075,12.4923387 441.684075,17.2367557 C441.684075,21.9811727 445.590075,25.8551335 450.37373,25.8551335 C455.157385,25.8551335 459.063385,21.9811727 459.063385,17.2367557 C459.063385,12.4923387 455.157385,8.61837784 450.37373,8.61837784 Z M450.37373,11.0807715 C453.816633,11.0807715 456.580627,13.8220928 456.580627,17.2367557 C456.580627,20.6514186 453.816633,23.3927399 450.37373,23.3927399 C446.930827,23.3927399 444.166833,20.6514186 444.166833,17.2367557 C444.166833,13.8220928 446.930827,11.0807715 450.37373,11.0807715 Z" id="location" fill="#000000"></path>
        <path d="M489.645502,8.07837659 C491.108917,6.84819512 493.333776,6.90766829 494.680585,8.31160976 L494.680585,8.31160976 L499.948878,13.5799024 C501.412293,15.1027902 501.412293,17.4442537 499.948878,18.9076683 C498.897093,19.9617951 495.85134,21.9511024 495.325424,22.2437854 C494.799508,22.5959415 494.506825,23.1813073 494.447376,23.7666732 C494.447376,24.4091707 494.623465,24.9945483 495.092215,25.4632976 L495.092215,25.4632976 L504.34158,34.710322 C504.808,35.1790946 505.393366,35.4146107 506.038205,35.355161 C506.623571,35.2956878 507.20896,34.9458615 507.561093,34.4771122 C507.910907,33.9512195 509.843083,30.9077854 510.89721,29.8536585 C512.420098,28.3307707 514.702088,28.3307707 516.224976,29.8536585 L516.224976,29.8536585 L521.491138,35.122162 C522.835629,36.4689717 522.954576,38.6343571 521.724371,40.1572449 C520.613112,41.5040546 519.149698,43.0840741 518.504859,43.7289132 C515.927493,46.2464546 512.534478,47.6503973 508.96281,47.6503973 C505.334127,47.6503973 501.995434,46.3035863 499.420761,43.7289132 L499.420761,43.7289132 L486.073834,30.3819863 C483.556292,27.8046205 482.152351,24.4687376 482.152351,20.8399376 C482.152351,17.2112546 483.556292,13.8154302 486.073834,11.2978888 C486.6592,10.6530498 488.298693,9.18963512 489.645502,8.07837659 Z M487.542517,13.6963902 C485.786418,15.6881561 484.791765,18.2033561 484.791765,20.8969756 C484.791765,23.7643317 485.903023,26.4579512 487.951805,28.5067317 L487.951805,28.5067317 L501.356238,41.8537756 C503.347653,43.9025561 506.098404,45.013838 508.908628,45.0732878 C511.602365,45.0732878 514.119906,44.1381073 516.109214,42.3225366 L516.109214,42.3225366 L509.786677,36 L509.727227,36.0594498 C508.908652,37.2301815 507.618974,37.9321405 506.215032,38.0487571 C504.811091,38.1677034 503.404808,37.6394693 502.410154,36.6448156 L502.410154,36.6448156 L493.160788,27.3954498 C492.166146,26.4007961 491.64023,24.9945132 491.756847,23.5905717 C491.873452,22.1866302 492.575422,20.8969522 493.746154,20.0783766 L493.746154,20.0783766 L493.805604,20.0189268 L493.865054,20.0189268 Z M514.233678,31.8428488 C513.881522,31.4907161 513.29618,31.3169327 512.770263,31.8428488 C512.47758,32.1355317 511.892238,32.8969756 511.366322,33.6584195 L511.366322,33.6584195 L518.040663,40.273639 C518.566556,39.6882732 519.151934,39.0434341 519.620683,38.4580683 C519.97072,38.0486634 519.913553,37.4038244 519.501971,37.1111415 L519.501971,37.1111415 Z M527.522677,0.292120976 C533.141077,0.292120976 537.707405,4.85867707 537.705117,10.47456 C537.705117,16.0924332 533.14137,20.6587551 527.520921,20.6587551 L527.520921,20.6587551 L518.916628,20.6587551 C516.984336,21.88896 514.05774,23.4118478 510.897701,24.2304234 C510.662162,24.2898732 510.486096,24.2898732 510.252862,24.2898732 C509.434287,24.2898732 508.672831,23.9377171 508.204082,23.2357463 C507.618693,22.3576976 507.618693,21.246439 508.263532,20.3683902 C508.615688,19.8424976 508.965526,19.2571317 509.317659,18.6122927 C506.742985,16.7397073 505.220098,13.6963902 505.220098,10.476878 C505.220098,4.85900488 509.786127,0.292682927 515.404293,0.292682927 L515.404293,0.292682927 Z M527.52359,2.98386732 L515.407102,2.98386732 C511.249951,2.98386732 507.913834,6.37957463 507.913834,10.4771356 C507.913834,13.1709893 509.377249,15.6290576 511.718712,16.9758673 C512.363528,17.3280234 512.596761,18.0871259 512.304078,18.7319649 C511.835317,19.72896 511.36658,20.6641405 510.840663,21.4255844 C513.767259,20.5475356 516.401405,19.0246478 517.805346,18.146599 C517.981401,17.9728156 518.274084,17.9133659 518.507317,17.9133659 L518.507317,17.9133659 L527.523122,17.9133659 C531.621268,17.913038 535.01457,14.6341698 535.016859,10.4771356 C535.016859,6.31998439 531.621151,2.98386732 527.52359,2.98386732 L527.52359,2.98386732 Z M492.048898,9.95096195 C491.815676,9.95096195 491.522993,10.0081288 491.346927,10.1841951 L491.346927,10.1841951 C490.761561,10.7122888 490.116722,11.2382166 489.531356,11.7664156 L489.531356,11.7664156 L496.263063,18.3792937 C497.024507,17.853401 497.785951,17.2680351 498.078634,16.9753522 C498.487934,16.5660644 498.487934,15.9212371 498.078634,15.5119376 L498.078634,15.5119376 L492.810341,10.2436449 C492.574814,10.0675785 492.34158,9.95096195 492.048898,9.95096195 Z M516.693854,10.476878 C516.693854,13.5225951 512.127532,13.5225951 512.127532,10.476878 C512.127532,7.4334439 516.693854,7.4334439 516.693854,10.476878 Z M523.775024,10.476878 C523.775024,13.5225951 519.208702,13.5225951 519.208702,10.476878 C519.208702,7.4334439 523.775024,7.4334439 523.775024,10.476878 Z M530.799415,10.476878 C530.799415,13.5225951 526.233093,13.5225951 526.233093,10.476878 C526.233093,7.4334439 530.799415,7.4334439 530.799415,10.476878 Z" id="phone" fill="#000000"></path>
    </g>
</svg>
